<mxfile host="app.diagrams.net" modified="2023-12-09T16:50:40.031Z" agent="Mozilla/5.0 (Windows NT 10.0; Win64; x64; rv:120.0) Gecko/20100101 Firefox/120.0" etag="XClcuG8SdJrOV3lA9m4U" version="22.1.7" type="google">
  <diagram name="Страница — 1" id="HsLq53zubuRbjot5mAAJ">
    <mxGraphModel grid="1" page="1" gridSize="10" guides="1" tooltips="1" connect="1" arrows="1" fold="1" pageScale="1" pageWidth="1169" pageHeight="826" math="0" shadow="0">
      <root>
        <mxCell id="0" />
        <mxCell id="1" parent="0" />
        <mxCell id="5y0a2fpjLMVxcu59K-3s-2" value="" style="ellipse;html=1;" vertex="1" parent="1">
          <mxGeometry x="40" y="265" width="30" height="30" as="geometry" />
        </mxCell>
        <mxCell id="5y0a2fpjLMVxcu59K-3s-3" value="" style="endArrow=open;html=1;rounded=0;align=center;verticalAlign=top;endFill=0;labelBackgroundColor=none;endSize=6;entryX=0;entryY=0.5;entryDx=0;entryDy=0;" edge="1" parent="1" source="5y0a2fpjLMVxcu59K-3s-2" target="5y0a2fpjLMVxcu59K-3s-7">
          <mxGeometry relative="1" as="geometry">
            <mxPoint x="135" y="255" as="targetPoint" />
          </mxGeometry>
        </mxCell>
        <mxCell id="5y0a2fpjLMVxcu59K-3s-5" value="" style="ellipse;html=1;" vertex="1" parent="1">
          <mxGeometry x="760" y="265" width="30" height="30" as="geometry" />
        </mxCell>
        <mxCell id="5y0a2fpjLMVxcu59K-3s-6" value="" style="endArrow=open;html=1;rounded=0;align=center;verticalAlign=top;endFill=0;labelBackgroundColor=none;endSize=6;exitX=1;exitY=0.5;exitDx=0;exitDy=0;" edge="1" parent="1" source="5y0a2fpjLMVxcu59K-3s-7" target="5y0a2fpjLMVxcu59K-3s-5">
          <mxGeometry relative="1" as="geometry">
            <mxPoint x="720" y="235" as="sourcePoint" />
          </mxGeometry>
        </mxCell>
        <mxCell id="5y0a2fpjLMVxcu59K-3s-7" value="Главное окно" style="html=1;align=center;verticalAlign=top;rounded=1;absoluteArcSize=1;arcSize=10;dashed=0;whiteSpace=wrap;" vertex="1" parent="1">
          <mxGeometry x="300" y="260" width="140" height="40" as="geometry" />
        </mxCell>
        <mxCell id="5y0a2fpjLMVxcu59K-3s-9" value="Управление утилизантами" style="html=1;align=center;verticalAlign=top;rounded=1;absoluteArcSize=1;arcSize=10;dashed=0;whiteSpace=wrap;" vertex="1" parent="1">
          <mxGeometry x="550" y="413" width="140" height="40" as="geometry" />
        </mxCell>
        <mxCell id="5y0a2fpjLMVxcu59K-3s-15" value="Оформление заказа материалов" style="html=1;align=center;verticalAlign=top;rounded=1;absoluteArcSize=1;arcSize=10;dashed=0;whiteSpace=wrap;" vertex="1" parent="1">
          <mxGeometry x="630" y="120" width="140" height="40" as="geometry" />
        </mxCell>
        <mxCell id="5y0a2fpjLMVxcu59K-3s-16" value="Оформление поступления материалов" style="html=1;align=center;verticalAlign=top;rounded=1;absoluteArcSize=1;arcSize=10;dashed=0;whiteSpace=wrap;" vertex="1" parent="1">
          <mxGeometry x="530" y="50" width="140" height="60" as="geometry" />
        </mxCell>
        <mxCell id="5y0a2fpjLMVxcu59K-3s-17" value="Оформление списания материалов" style="html=1;align=center;verticalAlign=top;rounded=1;absoluteArcSize=1;arcSize=10;dashed=0;whiteSpace=wrap;" vertex="1" parent="1">
          <mxGeometry x="360" y="30" width="140" height="40" as="geometry" />
        </mxCell>
        <mxCell id="5y0a2fpjLMVxcu59K-3s-18" value="Просмотр списка групп" style="html=1;align=center;verticalAlign=top;rounded=1;absoluteArcSize=1;arcSize=10;dashed=0;whiteSpace=wrap;" vertex="1" parent="1">
          <mxGeometry x="210" y="70" width="140" height="40" as="geometry" />
        </mxCell>
        <mxCell id="5y0a2fpjLMVxcu59K-3s-19" value="Просмотр списка метериалов" style="html=1;align=center;verticalAlign=top;rounded=1;absoluteArcSize=1;arcSize=10;dashed=0;whiteSpace=wrap;" vertex="1" parent="1">
          <mxGeometry x="60" y="100" width="140" height="40" as="geometry" />
        </mxCell>
        <mxCell id="5y0a2fpjLMVxcu59K-3s-20" value="Управление поставщиками" style="html=1;align=center;verticalAlign=top;rounded=1;absoluteArcSize=1;arcSize=10;dashed=0;whiteSpace=wrap;" vertex="1" parent="1">
          <mxGeometry x="640" y="340" width="140" height="40" as="geometry" />
        </mxCell>
        <mxCell id="5y0a2fpjLMVxcu59K-3s-21" value="Управление должностями" style="html=1;align=center;verticalAlign=top;rounded=1;absoluteArcSize=1;arcSize=10;dashed=0;whiteSpace=wrap;" vertex="1" parent="1">
          <mxGeometry x="420" y="470" width="140" height="40" as="geometry" />
        </mxCell>
        <mxCell id="5y0a2fpjLMVxcu59K-3s-22" value="Управление сотрудниками" style="html=1;align=center;verticalAlign=top;rounded=1;absoluteArcSize=1;arcSize=10;dashed=0;whiteSpace=wrap;" vertex="1" parent="1">
          <mxGeometry x="250" y="450" width="140" height="40" as="geometry" />
        </mxCell>
        <mxCell id="5y0a2fpjLMVxcu59K-3s-23" value="Управление графиками работы" style="html=1;align=center;verticalAlign=top;rounded=1;absoluteArcSize=1;arcSize=10;dashed=0;whiteSpace=wrap;" vertex="1" parent="1">
          <mxGeometry x="80" y="420" width="140" height="40" as="geometry" />
        </mxCell>
        <mxCell id="5y0a2fpjLMVxcu59K-3s-24" value="Управление данными организации" style="html=1;align=center;verticalAlign=top;rounded=1;absoluteArcSize=1;arcSize=10;dashed=0;whiteSpace=wrap;" vertex="1" parent="1">
          <mxGeometry x="20" y="360" width="140" height="40" as="geometry" />
        </mxCell>
        <mxCell id="5y0a2fpjLMVxcu59K-3s-25" value="" style="endArrow=open;html=1;rounded=0;align=center;verticalAlign=top;endFill=0;labelBackgroundColor=none;endSize=6;entryX=0.25;entryY=1;entryDx=0;entryDy=0;exitX=0.15;exitY=0;exitDx=0;exitDy=0;exitPerimeter=0;" edge="1" parent="1" source="5y0a2fpjLMVxcu59K-3s-7" target="5y0a2fpjLMVxcu59K-3s-18">
          <mxGeometry relative="1" as="geometry">
            <mxPoint x="212.5" y="120" as="targetPoint" />
            <mxPoint x="417.5" y="240" as="sourcePoint" />
          </mxGeometry>
        </mxCell>
        <mxCell id="5y0a2fpjLMVxcu59K-3s-27" value="" style="endArrow=open;html=1;rounded=0;align=center;verticalAlign=top;endFill=0;labelBackgroundColor=none;endSize=6;entryX=0.5;entryY=1;entryDx=0;entryDy=0;exitX=0;exitY=0;exitDx=0;exitDy=0;" edge="1" parent="1" source="5y0a2fpjLMVxcu59K-3s-7" target="5y0a2fpjLMVxcu59K-3s-19">
          <mxGeometry relative="1" as="geometry">
            <mxPoint x="100" y="160" as="targetPoint" />
            <mxPoint x="305" y="280" as="sourcePoint" />
            <Array as="points" />
          </mxGeometry>
        </mxCell>
        <mxCell id="5y0a2fpjLMVxcu59K-3s-28" value="" style="endArrow=open;html=1;rounded=0;align=center;verticalAlign=top;endFill=0;labelBackgroundColor=none;endSize=6;entryX=0.114;entryY=1.025;entryDx=0;entryDy=0;entryPerimeter=0;" edge="1" parent="1" source="5y0a2fpjLMVxcu59K-3s-7" target="5y0a2fpjLMVxcu59K-3s-17">
          <mxGeometry relative="1" as="geometry">
            <mxPoint x="241" y="124" as="targetPoint" />
            <mxPoint x="331" y="270" as="sourcePoint" />
          </mxGeometry>
        </mxCell>
        <mxCell id="5y0a2fpjLMVxcu59K-3s-29" value="" style="endArrow=open;html=1;rounded=0;align=center;verticalAlign=top;endFill=0;labelBackgroundColor=none;endSize=6;entryX=0.079;entryY=0.975;entryDx=0;entryDy=0;entryPerimeter=0;exitX=0.707;exitY=0;exitDx=0;exitDy=0;exitPerimeter=0;" edge="1" parent="1" source="5y0a2fpjLMVxcu59K-3s-7" target="5y0a2fpjLMVxcu59K-3s-16">
          <mxGeometry relative="1" as="geometry">
            <mxPoint x="386" y="81" as="targetPoint" />
            <mxPoint x="381" y="270" as="sourcePoint" />
          </mxGeometry>
        </mxCell>
        <mxCell id="5y0a2fpjLMVxcu59K-3s-30" value="" style="endArrow=open;html=1;rounded=0;align=center;verticalAlign=top;endFill=0;labelBackgroundColor=none;endSize=6;entryX=0;entryY=0.75;entryDx=0;entryDy=0;exitX=1;exitY=0;exitDx=0;exitDy=0;" edge="1" parent="1" source="5y0a2fpjLMVxcu59K-3s-7" target="5y0a2fpjLMVxcu59K-3s-15">
          <mxGeometry relative="1" as="geometry">
            <mxPoint x="551" y="119" as="targetPoint" />
            <mxPoint x="406" y="265" as="sourcePoint" />
          </mxGeometry>
        </mxCell>
        <mxCell id="5y0a2fpjLMVxcu59K-3s-31" value="" style="endArrow=open;html=1;rounded=0;align=center;verticalAlign=top;endFill=0;labelBackgroundColor=none;endSize=6;entryX=1;entryY=1;entryDx=0;entryDy=0;exitX=0;exitY=0.25;exitDx=0;exitDy=0;" edge="1" parent="1" source="5y0a2fpjLMVxcu59K-3s-20" target="5y0a2fpjLMVxcu59K-3s-7">
          <mxGeometry relative="1" as="geometry">
            <mxPoint x="420" y="280" as="targetPoint" />
            <mxPoint x="631" y="397" as="sourcePoint" />
            <Array as="points" />
          </mxGeometry>
        </mxCell>
        <mxCell id="5y0a2fpjLMVxcu59K-3s-32" value="" style="endArrow=open;html=1;rounded=0;align=center;verticalAlign=top;endFill=0;labelBackgroundColor=none;endSize=6;entryX=0.75;entryY=1;entryDx=0;entryDy=0;exitX=0.5;exitY=0;exitDx=0;exitDy=0;" edge="1" parent="1" source="5y0a2fpjLMVxcu59K-3s-9" target="5y0a2fpjLMVxcu59K-3s-7">
          <mxGeometry relative="1" as="geometry">
            <mxPoint x="450" y="310" as="targetPoint" />
            <mxPoint x="650" y="360" as="sourcePoint" />
            <Array as="points" />
          </mxGeometry>
        </mxCell>
        <mxCell id="5y0a2fpjLMVxcu59K-3s-33" value="" style="endArrow=open;html=1;rounded=0;align=center;verticalAlign=top;endFill=0;labelBackgroundColor=none;endSize=6;entryX=0.614;entryY=1.05;entryDx=0;entryDy=0;exitX=0.5;exitY=0;exitDx=0;exitDy=0;entryPerimeter=0;" edge="1" parent="1" source="5y0a2fpjLMVxcu59K-3s-21" target="5y0a2fpjLMVxcu59K-3s-7">
          <mxGeometry relative="1" as="geometry">
            <mxPoint x="415" y="310" as="targetPoint" />
            <mxPoint x="630" y="423" as="sourcePoint" />
            <Array as="points" />
          </mxGeometry>
        </mxCell>
        <mxCell id="5y0a2fpjLMVxcu59K-3s-34" value="" style="endArrow=open;html=1;rounded=0;align=center;verticalAlign=top;endFill=0;labelBackgroundColor=none;endSize=6;entryX=0.5;entryY=1;entryDx=0;entryDy=0;" edge="1" parent="1" source="5y0a2fpjLMVxcu59K-3s-22" target="5y0a2fpjLMVxcu59K-3s-7">
          <mxGeometry relative="1" as="geometry">
            <mxPoint x="396" y="312" as="targetPoint" />
            <mxPoint x="500" y="480" as="sourcePoint" />
            <Array as="points" />
          </mxGeometry>
        </mxCell>
        <mxCell id="5y0a2fpjLMVxcu59K-3s-35" value="" style="endArrow=open;html=1;rounded=0;align=center;verticalAlign=top;endFill=0;labelBackgroundColor=none;endSize=6;entryX=0.25;entryY=1;entryDx=0;entryDy=0;exitX=1;exitY=0;exitDx=0;exitDy=0;" edge="1" parent="1" source="5y0a2fpjLMVxcu59K-3s-23" target="5y0a2fpjLMVxcu59K-3s-7">
          <mxGeometry relative="1" as="geometry">
            <mxPoint x="380" y="310" as="targetPoint" />
            <mxPoint x="336" y="460" as="sourcePoint" />
            <Array as="points" />
          </mxGeometry>
        </mxCell>
        <mxCell id="5y0a2fpjLMVxcu59K-3s-36" value="" style="endArrow=open;html=1;rounded=0;align=center;verticalAlign=top;endFill=0;labelBackgroundColor=none;endSize=6;entryX=0.05;entryY=1;entryDx=0;entryDy=0;exitX=1;exitY=0;exitDx=0;exitDy=0;entryPerimeter=0;" edge="1" parent="1" source="5y0a2fpjLMVxcu59K-3s-24" target="5y0a2fpjLMVxcu59K-3s-7">
          <mxGeometry relative="1" as="geometry">
            <mxPoint x="345" y="310" as="targetPoint" />
            <mxPoint x="230" y="430" as="sourcePoint" />
            <Array as="points" />
          </mxGeometry>
        </mxCell>
        <mxCell id="5y0a2fpjLMVxcu59K-3s-37" value="" style="endArrow=open;html=1;rounded=0;align=center;verticalAlign=top;endFill=0;labelBackgroundColor=none;endSize=6;exitX=0.75;exitY=1;exitDx=0;exitDy=0;" edge="1" parent="1" source="5y0a2fpjLMVxcu59K-3s-19">
          <mxGeometry relative="1" as="geometry">
            <mxPoint x="310" y="260" as="targetPoint" />
            <mxPoint x="360" y="165" as="sourcePoint" />
            <Array as="points" />
          </mxGeometry>
        </mxCell>
        <mxCell id="5y0a2fpjLMVxcu59K-3s-38" value="" style="endArrow=open;html=1;rounded=0;align=center;verticalAlign=top;endFill=0;labelBackgroundColor=none;endSize=6;exitX=0.329;exitY=1;exitDx=0;exitDy=0;entryX=0.25;entryY=0;entryDx=0;entryDy=0;exitPerimeter=0;" edge="1" parent="1" source="5y0a2fpjLMVxcu59K-3s-18" target="5y0a2fpjLMVxcu59K-3s-7">
          <mxGeometry relative="1" as="geometry">
            <mxPoint x="325" y="273" as="targetPoint" />
            <mxPoint x="175" y="150" as="sourcePoint" />
            <Array as="points" />
          </mxGeometry>
        </mxCell>
        <mxCell id="5y0a2fpjLMVxcu59K-3s-39" value="" style="endArrow=open;html=1;rounded=0;align=center;verticalAlign=top;endFill=0;labelBackgroundColor=none;endSize=6;exitX=0.25;exitY=1;exitDx=0;exitDy=0;entryX=0.607;entryY=-0.075;entryDx=0;entryDy=0;entryPerimeter=0;" edge="1" parent="1" source="5y0a2fpjLMVxcu59K-3s-17" target="5y0a2fpjLMVxcu59K-3s-7">
          <mxGeometry relative="1" as="geometry">
            <mxPoint x="345" y="270" as="targetPoint" />
            <mxPoint x="266" y="120" as="sourcePoint" />
            <Array as="points" />
          </mxGeometry>
        </mxCell>
        <mxCell id="5y0a2fpjLMVxcu59K-3s-40" value="" style="endArrow=open;html=1;rounded=0;align=center;verticalAlign=top;endFill=0;labelBackgroundColor=none;endSize=6;exitX=0.25;exitY=1;exitDx=0;exitDy=0;entryX=0.907;entryY=0.05;entryDx=0;entryDy=0;entryPerimeter=0;" edge="1" parent="1" source="5y0a2fpjLMVxcu59K-3s-16" target="5y0a2fpjLMVxcu59K-3s-7">
          <mxGeometry relative="1" as="geometry">
            <mxPoint x="395" y="267" as="targetPoint" />
            <mxPoint x="405" y="80" as="sourcePoint" />
            <Array as="points" />
          </mxGeometry>
        </mxCell>
        <mxCell id="5y0a2fpjLMVxcu59K-3s-41" value="" style="endArrow=open;html=1;rounded=0;align=center;verticalAlign=top;endFill=0;labelBackgroundColor=none;endSize=6;exitX=0.171;exitY=1.025;exitDx=0;exitDy=0;exitPerimeter=0;" edge="1" parent="1" source="5y0a2fpjLMVxcu59K-3s-15">
          <mxGeometry relative="1" as="geometry">
            <mxPoint x="440" y="270" as="targetPoint" />
            <mxPoint x="575" y="120" as="sourcePoint" />
            <Array as="points" />
          </mxGeometry>
        </mxCell>
        <mxCell id="5y0a2fpjLMVxcu59K-3s-42" value="" style="endArrow=open;html=1;rounded=0;align=center;verticalAlign=top;endFill=0;labelBackgroundColor=none;endSize=6;exitX=0.557;exitY=1.025;exitDx=0;exitDy=0;entryX=0.336;entryY=0.025;entryDx=0;entryDy=0;exitPerimeter=0;entryPerimeter=0;" edge="1" parent="1" source="5y0a2fpjLMVxcu59K-3s-7" target="5y0a2fpjLMVxcu59K-3s-21">
          <mxGeometry relative="1" as="geometry">
            <mxPoint x="459" y="460" as="targetPoint" />
            <mxPoint x="380" y="310" as="sourcePoint" />
            <Array as="points" />
          </mxGeometry>
        </mxCell>
        <mxCell id="5y0a2fpjLMVxcu59K-3s-43" value="" style="endArrow=open;html=1;rounded=0;align=center;verticalAlign=top;endFill=0;labelBackgroundColor=none;endSize=6;exitX=0.429;exitY=1.125;exitDx=0;exitDy=0;exitPerimeter=0;entryX=0.371;entryY=0.05;entryDx=0;entryDy=0;entryPerimeter=0;" edge="1" parent="1" source="5y0a2fpjLMVxcu59K-3s-7" target="5y0a2fpjLMVxcu59K-3s-22">
          <mxGeometry relative="1" as="geometry">
            <mxPoint x="477" y="481" as="targetPoint" />
            <mxPoint x="388" y="311" as="sourcePoint" />
            <Array as="points" />
          </mxGeometry>
        </mxCell>
        <mxCell id="5y0a2fpjLMVxcu59K-3s-44" value="" style="endArrow=open;html=1;rounded=0;align=center;verticalAlign=top;endFill=0;labelBackgroundColor=none;endSize=6;exitX=0.143;exitY=1;exitDx=0;exitDy=0;exitPerimeter=0;" edge="1" parent="1" source="5y0a2fpjLMVxcu59K-3s-7" target="5y0a2fpjLMVxcu59K-3s-23">
          <mxGeometry relative="1" as="geometry">
            <mxPoint x="312" y="462" as="targetPoint" />
            <mxPoint x="370" y="315" as="sourcePoint" />
            <Array as="points" />
          </mxGeometry>
        </mxCell>
        <mxCell id="5y0a2fpjLMVxcu59K-3s-45" value="" style="endArrow=open;html=1;rounded=0;align=center;verticalAlign=top;endFill=0;labelBackgroundColor=none;endSize=6;exitX=0;exitY=0.75;exitDx=0;exitDy=0;entryX=0.75;entryY=0;entryDx=0;entryDy=0;" edge="1" parent="1" source="5y0a2fpjLMVxcu59K-3s-7" target="5y0a2fpjLMVxcu59K-3s-24">
          <mxGeometry relative="1" as="geometry">
            <mxPoint x="184" y="430" as="targetPoint" />
            <mxPoint x="330" y="310" as="sourcePoint" />
            <Array as="points" />
          </mxGeometry>
        </mxCell>
        <mxCell id="5y0a2fpjLMVxcu59K-3s-46" value="" style="endArrow=open;html=1;rounded=0;align=center;verticalAlign=top;endFill=0;labelBackgroundColor=none;endSize=6;exitX=1;exitY=0.75;exitDx=0;exitDy=0;entryX=0;entryY=0;entryDx=0;entryDy=0;" edge="1" parent="1" source="5y0a2fpjLMVxcu59K-3s-7" target="5y0a2fpjLMVxcu59K-3s-20">
          <mxGeometry relative="1" as="geometry">
            <mxPoint x="125" y="360" as="targetPoint" />
            <mxPoint x="310" y="300" as="sourcePoint" />
            <Array as="points" />
          </mxGeometry>
        </mxCell>
        <mxCell id="5y0a2fpjLMVxcu59K-3s-47" value="" style="endArrow=open;html=1;rounded=0;align=center;verticalAlign=top;endFill=0;labelBackgroundColor=none;endSize=6;exitX=0.907;exitY=1.025;exitDx=0;exitDy=0;exitPerimeter=0;" edge="1" parent="1" source="5y0a2fpjLMVxcu59K-3s-7">
          <mxGeometry relative="1" as="geometry">
            <mxPoint x="650" y="410" as="targetPoint" />
            <mxPoint x="450" y="300" as="sourcePoint" />
            <Array as="points" />
          </mxGeometry>
        </mxCell>
        <mxCell id="5y0a2fpjLMVxcu59K-3s-48" value="Начало" style="text;html=1;align=center;verticalAlign=middle;resizable=0;points=[];autosize=1;strokeColor=none;fillColor=none;" vertex="1" parent="1">
          <mxGeometry x="5" y="238" width="70" height="30" as="geometry" />
        </mxCell>
        <mxCell id="5y0a2fpjLMVxcu59K-3s-50" value="Конец" style="text;html=1;align=center;verticalAlign=middle;resizable=0;points=[];autosize=1;strokeColor=none;fillColor=none;" vertex="1" parent="1">
          <mxGeometry x="710" y="230" width="60" height="30" as="geometry" />
        </mxCell>
      </root>
    </mxGraphModel>
  </diagram>
</mxfile>
